<svg height="411pt" viewBox="0 0 411 411.35104" width="411pt" xmlns="http://www.w3.org/2000/svg"><path d="m109.402344 160.425781c0-16.941406-13.78125-30.71875-30.722656-30.71875h-3.414063c-3.769531 0-6.824219 3.054688-6.824219 6.828125 0 3.769532 3.054688 6.824219 6.824219 6.824219h3.414063c9.410156 0 17.066406 7.65625 17.066406 17.066406 0 9.410157-7.65625 17.066407-17.066406 17.066407-3.769532 0-6.824219 3.058593-6.824219 6.828124 0 3.769532 3.054687 6.828126 6.824219 6.828126 16.941406 0 30.722656-13.78125 30.722656-30.722657zm0 0"/><path d="m116.226562 223.5625c-22.585937 0-40.960937 18.375-40.960937 40.960938v1.714843c0 3.773438 3.058594 6.828125 6.828125 6.828125s6.828125-3.054687 6.828125-6.828125v-1.714843c0-15.054688 12.25-27.308594 27.304687-27.308594 3.769532 0 6.828126-3.054688 6.828126-6.824219s-3.058594-6.828125-6.828126-6.828125zm0 0"/><path d="m136.707031 136.535156c15.054688 0 27.308594-12.253906 27.308594-27.308594 0-3.769531-3.058594-6.828124-6.828125-6.828124s-6.828125 3.058593-6.828125 6.828124c0 7.53125-6.121094 13.652344-13.652344 13.652344-3.769531 0-6.828125 3.058594-6.828125 6.828125s3.058594 6.828125 6.828125 6.828125zm0 0"/><path d="m167.425781 293.546875c-13.171875 0-23.890625-10.71875-23.890625-23.894531 0-3.769532-3.058594-6.824219-6.828125-6.824219s-6.828125 3.054687-6.828125 6.824219c0 20.703125 16.84375 37.546875 37.546875 37.546875 3.769531 0 6.828125-3.054688 6.828125-6.824219 0-3.773438-3.058594-6.828125-6.828125-6.828125zm0 0"/><path d="m389.292969 237.183594c-12.257813 0-22.226563 9.972656-22.226563 22.230468 0 1.726563.242188 3.390626.617188 5.007813l-14.414063 8.644531h-120.988281v-34.132812h33.566406c2.902344 8.90625 11.1875 15.402344 21.046875 15.402344 12.257813 0 22.230469-9.972657 22.230469-22.230469 0-12.253907-9.976562-22.226563-22.230469-22.226563-9.863281 0-18.144531 6.496094-21.046875 15.402344h-33.566406v-34.132812h88.179688c2.902343 8.902343 11.1875 15.402343 21.046874 15.402343 12.257813 0 22.230469-9.976562 22.230469-22.230469 0-12.257812-9.976562-22.230468-22.230469-22.230468-9.863281 0-18.144531 6.5-21.046874 15.402344h-88.179688v-34.132813h120.988281l14.414063 8.648437c-.375 1.613282-.617188 3.277344-.617188 5.003907 0 12.257812 9.972656 22.230469 22.226563 22.230469 12.257812 0 22.230469-9.972657 22.230469-22.230469 0-12.253907-9.972657-22.226563-22.230469-22.226563-5.578125 0-10.625 2.136719-14.53125 5.546875l-16.085938-9.652343c-1.066406-.636719-2.277343-.972657-3.515625-.972657h-122.878906v-27.308593h102.398438c2.074218 0 4.035156-.941407 5.332031-2.5625l24.238281-30.300782c1.476562.308594 3 .480469 4.5625.480469 12.257812 0 22.230469-9.972656 22.230469-22.230469 0-12.253906-9.972657-22.226562-22.230469-22.226562-12.253906 0-22.226562 9.972656-22.226562 22.226562 0 5.699219 2.214843 10.847656 5.753906 14.789063l-20.9375 26.171875h-99.121094v-20.480469h47.789062c2.585938 0 4.949219-1.457031 6.105469-3.773437l8-16c2.03125.617187 4.144531 1.042968 6.375 1.042968 12.253907 0 22.226563-9.972656 22.226563-22.226562 0-12.257813-9.972656-22.230469-22.226563-22.230469-12.257812 0-22.230469 9.972656-22.230469 22.230469 0 5.003906 1.726563 9.582031 4.53125 13.300781l-7.003906 14.003906h-43.566406v-6.828125c0-26.347656-21.4375-47.785156-47.785156-47.785156-18.769532 0-35.496094 10.847656-43.273438 27.53125-.300781-.03125-.589844-.015625-.890625-.039062-1.199219-.089844-2.398437-.183594-3.625-.183594-.027343 0-.054687.015625-.085937.015625-26.285156-.09375-47.695313 21.453125-47.699219 47.769531 0 .664062.015625 1.328125.042969 1.996094-4.40625-1.316406-9.011719-1.996094-13.695313-1.996094-26.351562 0-47.789062 21.4375-47.789062 47.789062 0 6.644532 1.398437 13.1875 4.074219 19.238282-19.507813 13.277344-31.378907 35.421875-31.378907 59.265625 0 23.847656 11.871094 45.992187 31.378907 59.269531-2.675782 6.054688-4.074219 12.597656-4.074219 19.238281 0 26.351563 21.4375 47.789063 47.789062 47.789063 4.683594 0 9.289063-.675782 13.695313-1.996094-.03125.667969-.042969 1.332031-.042969 1.996094.003906 26.320312 21.4375 47.871094 47.703125 47.769531.03125 0 .054688.015625.082031.015625 1.210938 0 2.394531-.09375 3.582031-.179688.3125-.027343.617188-.011718.933594-.042968 7.777344 16.679687 24.5 27.527344 43.269532 27.527344 24.027343 0 43.914062-17.839844 47.242187-40.957032h44.113281l7.003906 14c-2.804687 3.722656-4.53125 8.296875-4.53125 13.304688 0 12.257812 9.972657 22.230468 22.230469 22.230468 12.253907 0 22.226563-9.972656 22.226563-22.230468 0-12.253906-9.972656-22.230469-22.226563-22.230469-2.234375 0-4.34375.433594-6.375 1.042969l-8-16c-1.15625-2.3125-3.519531-3.773438-6.105469-3.773438h-47.789062v-20.476562h99.121094l20.9375 26.171875c-3.535156 3.9375-5.753906 9.085937-5.753906 14.785156 0 12.257813 9.972656 22.230469 22.226562 22.230469 12.257812 0 22.230469-9.972656 22.230469-22.230469 0-12.253906-9.972657-22.226563-22.230469-22.226563-1.5625 0-3.085938.167969-4.5625.476563l-24.238281-30.300781c-1.296875-1.617188-3.257813-2.5625-5.332031-2.5625h-102.398438v-27.304688h122.878906c1.238282 0 2.449219-.335937 3.515625-.972656l16.085938-9.652344c3.90625 3.410156 8.953125 5.546875 14.53125 5.546875 12.257812 0 22.230469-9.972656 22.230469-22.230469 0-12.253906-9.972657-22.230468-22.230469-22.230468zm-102.398438-13.652344c4.726563 0 8.574219 3.847656 8.574219 8.574219 0 4.730469-3.847656 8.578125-8.574219 8.578125-4.730469 0-8.578125-3.847656-8.578125-8.578125 0-4.726563 3.847656-8.574219 8.578125-8.574219zm54.613281-47.789062c4.726563 0 8.574219 3.847656 8.574219 8.578124 0 4.730469-3.847656 8.574219-8.574219 8.574219-4.730468 0-8.578124-3.84375-8.578124-8.574219 0-4.730468 3.847656-8.578124 8.578124-8.578124zm47.785157-27.304688c4.730469 0 8.578125 3.847656 8.578125 8.574219 0 4.730469-3.847656 8.578125-8.578125 8.578125-4.726563 0-8.574219-3.847656-8.574219-8.578125 0-4.726563 3.847656-8.574219 8.574219-8.574219zm-20.480469-109.226562c4.730469 0 8.578125 3.847656 8.578125 8.574218 0 4.730469-3.847656 8.578125-8.578125 8.578125-4.726562 0-8.574219-3.847656-8.574219-8.578125 0-4.726562 3.847657-8.574218 8.574219-8.574218zm-68.265625-20.480469c4.730469 0 8.578125 3.847656 8.578125 8.578125 0 4.726562-3.847656 8.574218-8.578125 8.574218s-8.574219-3.847656-8.574219-8.574218c0-4.730469 3.84375-8.578125 8.574219-8.578125zm8.578125 370.390625c0 4.726562-3.847656 8.574218-8.574219 8.574218-4.730469 0-8.578125-3.847656-8.578125-8.574218 0-4.730469 3.847656-8.578125 8.578125-8.578125 4.726563 0 8.574219 3.847656 8.574219 8.578125zm68.265625-20.480469c0 4.730469-3.847656 8.574219-8.574219 8.574219-4.730468 0-8.578125-3.84375-8.578125-8.574219 0-3.53125 2.152344-6.566406 5.207031-7.878906.015626-.011719.03125-.015625.050782-.027344 1.019531-.429687 2.144531-.671875 3.320312-.671875 4.726563 0 8.574219 3.847656 8.574219 8.578125zm-192.898437 20.480469c-12.464844 0-23.601563-6.753906-29.578126-17.277344 17.339844-7.175781 29.578126-24.261719 29.578126-44.164062 0-3.769532-3.054688-6.828126-6.824219-6.828126s-6.828125 3.058594-6.828125 6.828126c0 16.355468-11.574219 30.03125-26.953125 33.34375-.367188.078124-.726563.109374-1.089844.175781-1.839844.335937-3.714844.542969-5.644531.570312-18.988282.34375-34.578125-15.132812-34.578125-34.089843 0-3.875.691406-7.753907 2.046875-11.535157 1-2.777343.097656-5.886719-2.238282-7.699219-2.332031-1.820312-5.570312-1.917968-8.011718-.261718-5.648438 3.824218-12.253906 5.84375-19.101563 5.84375-18.820312 0-34.132812-15.316406-34.132812-34.132813 0-6.375 1.804687-12.625 5.222656-18.078125.996094-1.589844 1.296875-3.519531.828125-5.335937-.472656-1.820313-1.671875-3.359375-3.3125-4.265625-18.53125-10.226563-30.042969-29.703125-30.042969-50.828125s11.511719-40.601563 30.042969-50.828125c1.640625-.90625 2.839844-2.449219 3.3125-4.265625.46875-1.816407.167969-3.746094-.828125-5.335938-3.417969-5.453125-5.222656-11.703125-5.222656-18.078125 0-18.816406 15.3125-34.132812 34.132812-34.132812 6.851563 0 13.457031 2.019531 19.101563 5.84375 2.441406 1.648437 5.679687 1.558594 8.011718-.261719 2.335938-1.8125 3.238282-4.921875 2.238282-7.699219-1.355469-3.78125-2.046875-7.660156-2.046875-11.535156 0-18.976562 15.617187-34.449219 34.636719-34.082031 1.902343.027343 3.757812.234375 5.574218.5625.371094.066406.730469.097656 1.101563.175781 15.378906 3.3125 26.957031 16.988281 26.957031 33.34375 0 3.769531 3.054688 6.828125 6.824219 6.828125s6.828125-3.058594 6.828125-6.828125c0-19.902344-12.242188-36.988281-29.582032-44.164062 5.976563-10.523438 17.117188-17.277344 29.582032-17.277344 18.820312 0 34.132812 15.316406 34.132812 34.132812v85.671875c-.480468.933594-.820312 1.953125-.820312 3.078125 0 1.121094.339844 2.140625.820312 3.074219v37.882813h-13.652344c-11.292968 0-20.480468-9.1875-20.480468-20.480469 0-3.769531-3.058594-6.824219-6.828125-6.824219s-6.824219 3.054688-6.824219 6.824219c0 18.820312 15.3125 34.136719 34.132812 34.136719h13.652344v61.4375h-15.425781c-6.550781 0-11.882813-5.328126-11.882813-11.878907 0-23.5625-19.167968-42.734375-42.730468-42.734375h-5.054688c-3.769531 0-6.828125 3.058594-6.828125 6.828125s3.058594 6.824219 6.828125 6.824219h5.054688c16.035156 0 29.078125 13.050781 29.078125 29.082031 0 14.078125 11.453125 25.53125 25.535156 25.53125h15.425781v88.75c0 18.820313-15.3125 34.132813-34.136718 34.132813zm204.800781-121.128906c-4.726563 0-8.574219-3.847657-8.574219-8.578126 0-4.726562 3.847656-8.574218 8.574219-8.574218 4.730469 0 8.578125 3.847656 8.578125 8.574218 0 4.730469-3.847656 8.578126-8.578125 8.578126zm0 0"/></svg>